# xmcd CD database file
#
# Track frame offsets:
#	150
#	12360
#	26575
#	41613
#	56143
#	71218
#	86338
#	101440
#	116715
#	132023
#	146738
#	159813
#	172728
#	187610
#	202370
#	215983
#	231625
#	244025
#	256933
#	270770
#
# Disc length: 3790 seconds
#
# Revision: 1
# Processed by: cddbd v1.5.2PL0 Copyright (c) Steve Scherf et al.
# Submitted via: CDex 1.99.1
#
DISCID=190ecc14
DTITLE="Ma" Rainey - Ma Rainey - The Paramounts Chronologically - 1924-1925 Vol. 2
DYEAR=1989
DGENRE=Blues
TTITLE0=Shave 'Em Dry Blues
TTITLE1=Farewell, Daddy Blues
TTITLE2=Booze And Blues
TTITLE3=Toad Frog Blues
TTITLE4=Jealous Hearted Blues
TTITLE5=See See Rider Blues
TTITLE6=Jelly Bean Blues
TTITLE7=Countin' The Blues
TTITLE8=Countin' The Blues
TTITLE9=Cell Bound Blues
TTITLE10=Army Camp Harmony Blues
TTITLE11=Army Camp Harmony Blues
TTITLE12=Explaining The Blues
TTITLE13=Explaining The Blues
TTITLE14=Louisiana Hoo Doo Blues
TTITLE15=Goodbye, Daddy Blues
TTITLE16=Stormy Sea Blues
TTITLE17=Rough And Tumble Blues
TTITLE18=Night Time Blues
TTITLE19=Night Time Blues
EXTD=Black Swan, HCD-12002 YEAR: 1989
EXTT0=
EXTT1=
EXTT2=
EXTT3=
EXTT4=
EXTT5=
EXTT6=
EXTT7=
EXTT8=
EXTT9=
EXTT10=
EXTT11=
EXTT12=
EXTT13=
EXTT14=
EXTT15=
EXTT16=
EXTT17=
EXTT18=
EXTT19=
PLAYORDER=
